<?xml version="1.0" encoding="UTF-8" standalone="no"?><!DOCTYPE svg PUBLIC "-//W3C//DTD SVG 1.1//EN" "http://www.w3.org/Graphics/SVG/1.1/DTD/svg11.dtd"><svg width="100%" height="100%" viewBox="0 0 1700 174" version="1.1" xmlns="http://www.w3.org/2000/svg" xmlns:xlink="http://www.w3.org/1999/xlink" xml:space="preserve" xmlns:serif="http://www.serif.com/" style="fill-rule:evenodd;clip-rule:evenodd;stroke-linecap:round;stroke-linejoin:bevel;stroke-miterlimit:1.5;"><rect id="Mesa-de-trabajo1" serif:id="Mesa de trabajo1" x="0" y="0" width="1699.04" height="173.967" style="fill:none;"/><g id="Capa_1"><g><rect x="19.901" y="16.733" width="562.004" height="140.501" style="fill:none;"/><g><g><path d="M74.802,52.034l0,-30.91c0,-0 66.211,25.536 80.191,68.564c4.11,12.61 16.895,62.523 -74.009,62.523c0,0 51.318,0.632 50.932,-42.431c-0.351,-38.989 -40.429,-50.932 -57.114,-57.746Z" style="fill:url(#_Linear1);fill-rule:nonzero;"/></g><g><path d="M71.711,52.666l0,29.681c-37.092,2.459 -34.633,37.092 9.905,70.496c0,0 -66.773,-22.269 -59.361,-63.085c7.411,-34.633 49.456,-37.092 49.456,-37.092Z" style="fill:url(#_Linear2);fill-rule:nonzero;"/></g></g></g></g><g id="Capa_2"><g><path d="M232.488,128.137l-15.34,-0c-6.914,-0 -12.729,-2.125 -17.447,-6.374c-4.717,-4.249 -7.075,-9.758 -7.075,-16.528c-0,-6.842 2.412,-12.567 7.238,-17.176c4.825,-4.609 10.694,-6.914 17.608,-6.914l15.016,0l-0,46.992Zm-51.097,-22.902c-0,9.651 3.421,17.699 10.262,24.144c6.842,6.446 15.16,9.669 24.955,9.669l26.358,-0l0,-85.45l-10.478,0l-0,17.825l-16.42,-0c-6.626,-0 -12.676,1.584 -18.149,4.753c-5.473,3.169 -9.722,7.634 -12.747,13.395c-2.521,4.97 -3.781,10.191 -3.781,15.664Z" style="fill:#3f3f3f;fill-rule:nonzero;"/><path d="M261.655,139.048l-11.127,-0l0,-68.597l11.127,-0l-0,68.597Zm-10.803,-79.832c0,-1.441 0.522,-2.683 1.567,-3.727c1.044,-1.044 2.286,-1.567 3.726,-1.567c1.513,0 2.791,0.523 3.835,1.567c1.045,1.044 1.567,2.286 1.567,3.727c-0,1.512 -0.522,2.79 -1.567,3.835c-1.044,1.044 -2.322,1.566 -3.835,1.566c-1.44,0 -2.682,-0.522 -3.726,-1.566c-1.045,-1.045 -1.567,-2.323 -1.567,-3.835Z" style="fill:#3f3f3f;fill-rule:nonzero;"/><path d="M268.136,71.531l10.803,-0l19.121,52.717l19.229,-52.717l10.694,-0l-25.818,67.517l-8.21,-0l-25.819,-67.517Z" style="fill:#3f3f3f;fill-rule:nonzero;"/><path d="M384.049,139.048l0,-57.903l-15.016,0c-6.913,0 -12.783,2.305 -17.608,6.914c-4.825,4.609 -7.238,10.334 -7.238,17.176c0,6.842 2.377,12.549 7.13,17.122c4.753,4.574 10.551,6.86 17.392,6.86c4.105,0 7.886,-0.972 11.343,-2.917l0,10.911c-4.537,1.512 -8.498,2.269 -11.883,2.269c-9.722,-0 -18.022,-3.295 -24.9,-9.885c-6.878,-6.589 -10.317,-14.709 -10.317,-24.36c0,-5.473 1.261,-10.694 3.781,-15.664c3.025,-5.761 7.274,-10.226 12.747,-13.395c5.474,-3.169 11.523,-4.753 18.149,-4.753l26.899,-0l-0,67.625l-10.479,-0Z" style="fill:#3f3f3f;fill-rule:nonzero;"/><rect x="402.414" y="53.598" width="11.127" height="85.449" style="fill:#3f3f3f;fill-rule:nonzero;"/><path d="M431.473,128.137l15.34,-0c6.913,-0 12.711,-2.125 17.392,-6.374c4.681,-4.249 7.022,-9.758 7.022,-16.528c-0,-6.842 -2.395,-12.567 -7.184,-17.176c-4.789,-4.609 -10.641,-6.914 -17.555,-6.914l-15.015,0l-0,46.992Zm51.096,-22.902c0,9.651 -3.438,17.699 -10.316,24.144c-6.878,6.446 -15.178,9.669 -24.9,9.669l-26.359,-0l0,-85.45l10.479,0l-0,17.825l16.42,-0c6.625,-0 12.675,1.584 18.148,4.753c5.474,3.169 9.687,7.634 12.639,13.395c2.593,4.97 3.889,10.191 3.889,15.664Z" style="fill:#3f3f3f;fill-rule:nonzero;"/><path d="M549.762,100.05c-2.017,-13.035 -10.155,-19.553 -24.414,-19.553c-7.13,0 -13.269,2.413 -18.419,7.238c-5.149,4.825 -7.688,10.694 -7.615,17.608c0.072,6.77 2.502,12.531 7.291,17.284c4.789,4.754 10.569,7.13 17.339,7.13c5.761,0 11.234,-1.08 16.42,-3.241c6.049,-2.592 9.902,-6.085 11.559,-10.478l7.237,7.022c-2.952,5.545 -7.67,9.794 -14.151,12.747c-5.906,2.808 -12.459,4.213 -19.661,4.213c-10.083,-0 -18.707,-3.331 -25.872,-9.993c-7.166,-6.661 -10.749,-14.889 -10.749,-24.684c-0,-9.722 3.601,-17.968 10.803,-24.738c7.201,-6.77 15.807,-10.154 25.818,-10.154c10.803,0.072 19.265,2.52 25.386,7.345c7.274,5.69 10.911,14.512 10.911,26.467c-0,1.44 -0.036,2.953 -0.108,4.537l-51.853,0l0,-8.642l39.97,-0l0.108,-0.108Z" style="fill:#3f3f3f;fill-rule:nonzero;"/></g><path d="M603.427,135.853l13.405,-55.691" style="fill:none;stroke:#333;stroke-opacity:0.85;stroke-width:4.17px;"/><g><path d="M664.188,73.245l23.084,0c6.055,0 11.43,1.25 16.125,3.75c4.694,2.5 8.347,5.958 10.958,10.375c2.611,4.417 3.917,9.431 3.917,15.042c-0,5.611 -1.306,10.625 -3.917,15.041c-2.611,4.417 -6.264,7.875 -10.958,10.375c-4.695,2.5 -10.07,3.75 -16.125,3.75l-23.084,0l0,-58.333Zm22.75,54.5c5.389,0 10.139,-1.069 14.25,-3.208c4.111,-2.139 7.278,-5.125 9.5,-8.959c2.223,-3.833 3.334,-8.222 3.334,-13.166c-0,-4.945 -1.111,-9.334 -3.334,-13.167c-2.222,-3.833 -5.389,-6.819 -9.5,-8.958c-4.111,-2.139 -8.861,-3.209 -14.25,-3.209l-18.5,0l0,50.667l18.5,0Z" style="fill:#3f3f3f;fill-rule:nonzero;"/><path d="M731.688,88.078l4.167,0l0,43.5l-4.167,0l0,-43.5Zm8.917,-16.916l6,-0l-13.083,9.833l-4.5,0l11.583,-9.833Z" style="fill:#3f3f3f;fill-rule:nonzero;"/><path d="M768.105,87.745c5.389,0 9.528,1.375 12.417,4.125c2.889,2.75 4.333,6.792 4.333,12.125l0,27.583l-4,0l0,-7.75c-1.389,2.556 -3.417,4.542 -6.083,5.959c-2.667,1.416 -5.861,2.125 -9.584,2.125c-4.833,-0 -8.652,-1.139 -11.458,-3.417c-2.806,-2.278 -4.208,-5.278 -4.208,-9c-0,-3.611 1.291,-6.542 3.875,-8.792c2.583,-2.25 6.708,-3.375 12.375,-3.375l14.916,0l0,-3.5c0,-4.055 -1.097,-7.138 -3.291,-9.25c-2.195,-2.111 -5.403,-3.166 -9.625,-3.166c-2.889,-0 -5.653,0.5 -8.292,1.5c-2.639,1 -4.875,2.333 -6.708,4l-2.084,-3c2.167,-1.945 4.778,-3.459 7.834,-4.542c3.055,-1.083 6.25,-1.625 9.583,-1.625Zm-2.333,40.75c3.611,0 6.68,-0.833 9.208,-2.5c2.528,-1.667 4.431,-4.083 5.708,-7.25l0,-8.167l-14.833,0c-4.278,0 -7.375,0.778 -9.292,2.334c-1.916,1.555 -2.875,3.694 -2.875,6.416c0,2.834 1.056,5.07 3.167,6.709c2.111,1.639 5.083,2.458 8.917,2.458Z" style="fill:#3f3f3f;fill-rule:nonzero;"/><path d="M831.438,127.995l0,3.583l-34.583,0l0,-2.833l28.667,-37.083l-28.25,-0l-0,-3.584l33.666,0l0,2.834l-28.75,37.083l29.25,0Z" style="fill:#3f3f3f;fill-rule:nonzero;"/><path d="M913.272,73.245l-26,58.333l-4.25,0l-26,-58.333l4.666,0l23.584,52.833l23.583,-52.833l4.417,0Z" style="fill:#3f3f3f;fill-rule:nonzero;"/><path d="M932.688,87.745c5.389,0 9.528,1.375 12.417,4.125c2.889,2.75 4.333,6.792 4.333,12.125l0,27.583l-4,0l0,-7.75c-1.389,2.556 -3.416,4.542 -6.083,5.959c-2.667,1.416 -5.861,2.125 -9.583,2.125c-4.834,-0 -8.653,-1.139 -11.459,-3.417c-2.805,-2.278 -4.208,-5.278 -4.208,-9c0,-3.611 1.292,-6.542 3.875,-8.792c2.583,-2.25 6.708,-3.375 12.375,-3.375l14.917,0l-0,-3.5c-0,-4.055 -1.098,-7.138 -3.292,-9.25c-2.194,-2.111 -5.403,-3.166 -9.625,-3.166c-2.889,-0 -5.653,0.5 -8.292,1.5c-2.639,1 -4.875,2.333 -6.708,4l-2.083,-3c2.166,-1.945 4.777,-3.459 7.833,-4.542c3.056,-1.083 6.25,-1.625 9.583,-1.625Zm-2.333,40.75c3.611,0 6.681,-0.833 9.208,-2.5c2.528,-1.667 4.431,-4.083 5.709,-7.25l-0,-8.167l-14.834,0c-4.277,0 -7.375,0.778 -9.291,2.334c-1.917,1.555 -2.875,3.694 -2.875,6.416c-0,2.834 1.055,5.07 3.166,6.709c2.111,1.639 5.084,2.458 8.917,2.458Z" style="fill:#3f3f3f;fill-rule:nonzero;"/><rect x="966.605" y="69.745" width="4.167" height="61.833" style="fill:#3f3f3f;fill-rule:nonzero;"/><path d="M1027.02,69.745l-0,61.833l-4.084,0l0,-10.25c-1.722,3.389 -4.139,6 -7.25,7.834c-3.111,1.833 -6.639,2.75 -10.583,2.75c-4.056,-0 -7.722,-0.945 -11,-2.834c-3.278,-1.888 -5.847,-4.5 -7.708,-7.833c-1.861,-3.333 -2.792,-7.139 -2.792,-11.417c0,-4.277 0.931,-8.097 2.792,-11.458c1.861,-3.361 4.43,-5.972 7.708,-7.833c3.278,-1.861 6.944,-2.792 11,-2.792c3.889,0 7.375,0.917 10.458,2.75c3.084,1.833 5.514,4.389 7.292,7.667l0,-28.417l4.167,0Zm-21.667,58.417c3.333,-0 6.319,-0.778 8.958,-2.334c2.639,-1.555 4.723,-3.722 6.25,-6.5c1.528,-2.777 2.292,-5.944 2.292,-9.5c0,-3.555 -0.764,-6.722 -2.292,-9.5c-1.527,-2.777 -3.611,-4.944 -6.25,-6.5c-2.639,-1.555 -5.625,-2.333 -8.958,-2.333c-3.333,0 -6.319,0.778 -8.958,2.333c-2.639,1.556 -4.723,3.723 -6.25,6.5c-1.528,2.778 -2.292,5.945 -2.292,9.5c0,3.556 0.764,6.723 2.292,9.5c1.527,2.778 3.611,4.945 6.25,6.5c2.639,1.556 5.625,2.334 8.958,2.334Z" style="fill:#3f3f3f;fill-rule:nonzero;"/><path d="M1081.36,110.828l-37.417,0c0.111,3.389 0.973,6.403 2.584,9.042c1.611,2.639 3.791,4.681 6.541,6.125c2.75,1.445 5.848,2.167 9.292,2.167c2.833,-0 5.458,-0.514 7.875,-1.542c2.417,-1.028 4.431,-2.542 6.042,-4.542l2.416,2.75c-1.889,2.278 -4.264,4.028 -7.125,5.25c-2.861,1.223 -5.958,1.834 -9.291,1.834c-4.334,-0 -8.195,-0.945 -11.584,-2.834c-3.389,-1.888 -6.041,-4.5 -7.958,-7.833c-1.917,-3.333 -2.875,-7.139 -2.875,-11.417c0,-4.222 0.903,-8.013 2.708,-11.375c1.806,-3.361 4.292,-5.986 7.459,-7.875c3.166,-1.888 6.722,-2.833 10.666,-2.833c3.945,0 7.486,0.931 10.625,2.792c3.139,1.861 5.611,4.458 7.417,7.791c1.806,3.334 2.708,7.112 2.708,11.334l-0.083,1.166Zm-20.667,-19.416c-3.055,-0 -5.805,0.68 -8.25,2.041c-2.444,1.362 -4.402,3.278 -5.875,5.75c-1.472,2.473 -2.319,5.264 -2.541,8.375l33.333,0c-0.167,-3.111 -1,-5.888 -2.5,-8.333c-1.5,-2.444 -3.472,-4.361 -5.917,-5.75c-2.444,-1.389 -5.194,-2.083 -8.25,-2.083Z" style="fill:#3f3f3f;fill-rule:nonzero;"/><path d="M1098.36,97.578c1.333,-3.166 3.417,-5.597 6.25,-7.291c2.833,-1.695 6.278,-2.542 10.333,-2.542l0,4.083l-1,-0.083c-4.833,0 -8.611,1.514 -11.333,4.542c-2.722,3.028 -4.083,7.236 -4.083,12.625l-0,22.666l-4.167,0l0,-43.5l4,0l0,9.5Z" style="fill:#3f3f3f;fill-rule:nonzero;"/><path d="M1130.44,97.578c1.334,-3.166 3.417,-5.597 6.25,-7.291c2.834,-1.695 6.278,-2.542 10.334,-2.542l-0,4.083l-1,-0.083c-4.834,0 -8.611,1.514 -11.334,4.542c-2.722,3.028 -4.083,7.236 -4.083,12.625l0,22.666l-4.167,0l0,-43.5l4,0l0,9.5Z" style="fill:#3f3f3f;fill-rule:nonzero;"/><path d="M1173.19,87.745c5.389,0 9.528,1.375 12.417,4.125c2.889,2.75 4.333,6.792 4.333,12.125l0,27.583l-4,0l0,-7.75c-1.389,2.556 -3.416,4.542 -6.083,5.959c-2.667,1.416 -5.861,2.125 -9.583,2.125c-4.834,-0 -8.653,-1.139 -11.459,-3.417c-2.805,-2.278 -4.208,-5.278 -4.208,-9c0,-3.611 1.292,-6.542 3.875,-8.792c2.583,-2.25 6.708,-3.375 12.375,-3.375l14.917,0l-0,-3.5c-0,-4.055 -1.098,-7.138 -3.292,-9.25c-2.194,-2.111 -5.403,-3.166 -9.625,-3.166c-2.889,-0 -5.653,0.5 -8.292,1.5c-2.639,1 -4.875,2.333 -6.708,4l-2.083,-3c2.166,-1.945 4.777,-3.459 7.833,-4.542c3.056,-1.083 6.25,-1.625 9.583,-1.625Zm-2.333,40.75c3.611,0 6.681,-0.833 9.208,-2.5c2.528,-1.667 4.431,-4.083 5.709,-7.25l-0,-8.167l-14.834,0c-4.277,0 -7.375,0.778 -9.291,2.334c-1.917,1.555 -2.875,3.694 -2.875,6.416c-0,2.834 1.055,5.07 3.166,6.709c2.111,1.639 5.084,2.458 8.917,2.458Z" style="fill:#3f3f3f;fill-rule:nonzero;"/><path d="M1261.27,87.745c5.389,0 9.625,1.583 12.708,4.75c3.083,3.167 4.625,7.722 4.625,13.667l0,25.416l-4.167,0l0,-25.083c0,-4.889 -1.194,-8.611 -3.583,-11.167c-2.389,-2.555 -5.722,-3.833 -10,-3.833c-4.889,0 -8.764,1.528 -11.625,4.583c-2.861,3.056 -4.292,7.167 -4.292,12.334l0,23.166l-4.166,0l-0,-25.083c-0,-4.889 -1.195,-8.611 -3.584,-11.167c-2.389,-2.555 -5.722,-3.833 -10,-3.833c-4.889,0 -8.764,1.528 -11.625,4.583c-2.861,3.056 -4.291,7.167 -4.291,12.334l-0,23.166l-4.167,0l0,-43.5l4,0l0,9.334c1.444,-3.056 3.597,-5.431 6.458,-7.125c2.861,-1.695 6.264,-2.542 10.209,-2.542c3.944,0 7.291,0.889 10.041,2.667c2.75,1.778 4.709,4.389 5.875,7.833c1.445,-3.222 3.709,-5.778 6.792,-7.667c3.083,-1.888 6.681,-2.833 10.792,-2.833Z" style="fill:#3f3f3f;fill-rule:nonzero;"/><path d="M1310.44,87.745c5.389,0 9.528,1.375 12.417,4.125c2.889,2.75 4.333,6.792 4.333,12.125l0,27.583l-4,0l0,-7.75c-1.389,2.556 -3.416,4.542 -6.083,5.959c-2.667,1.416 -5.861,2.125 -9.583,2.125c-4.834,-0 -8.653,-1.139 -11.459,-3.417c-2.805,-2.278 -4.208,-5.278 -4.208,-9c0,-3.611 1.292,-6.542 3.875,-8.792c2.583,-2.25 6.708,-3.375 12.375,-3.375l14.917,0l-0,-3.5c-0,-4.055 -1.098,-7.138 -3.292,-9.25c-2.194,-2.111 -5.403,-3.166 -9.625,-3.166c-2.889,-0 -5.653,0.5 -8.292,1.5c-2.639,1 -4.875,2.333 -6.708,4l-2.083,-3c2.166,-1.945 4.777,-3.459 7.833,-4.542c3.056,-1.083 6.25,-1.625 9.583,-1.625Zm-2.333,40.75c3.611,0 6.681,-0.833 9.208,-2.5c2.528,-1.667 4.431,-4.083 5.709,-7.25l-0,-8.167l-14.834,0c-4.277,0 -7.375,0.778 -9.291,2.334c-1.917,1.555 -2.875,3.694 -2.875,6.416c-0,2.834 1.055,5.07 3.166,6.709c2.111,1.639 5.084,2.458 8.917,2.458Z" style="fill:#3f3f3f;fill-rule:nonzero;"/><path d="M1401.77,101.495c4.166,0.778 7.347,2.417 9.541,4.917c2.195,2.5 3.292,5.75 3.292,9.75c0,4.944 -1.806,8.75 -5.417,11.416c-3.611,2.667 -8.972,4 -16.083,4l-26,0l0,-58.333l24.333,0c6.334,0 11.264,1.292 14.792,3.875c3.528,2.583 5.292,6.264 5.292,11.042c-0,3.333 -0.875,6.139 -2.625,8.416c-1.75,2.278 -4.125,3.917 -7.125,4.917Zm-30.417,-24.583l0,23.25l19.917,-0c5.111,-0 9.041,-0.986 11.791,-2.959c2.75,-1.972 4.125,-4.875 4.125,-8.708c0,-3.778 -1.375,-6.653 -4.125,-8.625c-2.75,-1.972 -6.68,-2.958 -11.791,-2.958l-19.917,-0Zm21.75,51c5.667,-0 9.958,-0.986 12.875,-2.959c2.917,-1.972 4.375,-5.013 4.375,-9.125c0,-4.111 -1.458,-7.138 -4.375,-9.083c-2.917,-1.944 -7.208,-2.917 -12.875,-2.917l-21.75,0l0,24.084l21.75,-0Z" style="fill:#3f3f3f;fill-rule:nonzero;"/><path d="M1465.19,110.828l-37.416,0c0.111,3.389 0.972,6.403 2.583,9.042c1.611,2.639 3.792,4.681 6.542,6.125c2.75,1.445 5.847,2.167 9.291,2.167c2.834,-0 5.459,-0.514 7.875,-1.542c2.417,-1.028 4.431,-2.542 6.042,-4.542l2.417,2.75c-1.889,2.278 -4.264,4.028 -7.125,5.25c-2.861,1.223 -5.959,1.834 -9.292,1.834c-4.333,-0 -8.194,-0.945 -11.583,-2.834c-3.389,-1.888 -6.042,-4.5 -7.959,-7.833c-1.916,-3.333 -2.875,-7.139 -2.875,-11.417c0,-4.222 0.903,-8.013 2.709,-11.375c1.805,-3.361 4.291,-5.986 7.458,-7.875c3.167,-1.888 6.722,-2.833 10.667,-2.833c3.944,0 7.486,0.931 10.625,2.792c3.139,1.861 5.611,4.458 7.416,7.791c1.806,3.334 2.709,7.112 2.709,11.334l-0.084,1.166Zm-20.666,-19.416c-3.056,-0 -5.806,0.68 -8.25,2.041c-2.445,1.362 -4.403,3.278 -5.875,5.75c-1.473,2.473 -2.32,5.264 -2.542,8.375l33.333,0c-0.166,-3.111 -1,-5.888 -2.5,-8.333c-1.5,-2.444 -3.472,-4.361 -5.916,-5.75c-2.445,-1.389 -5.195,-2.083 -8.25,-2.083Z" style="fill:#3f3f3f;fill-rule:nonzero;"/><rect x="1478.19" y="69.745" width="4.167" height="61.833" style="fill:#3f3f3f;fill-rule:nonzero;"/><path d="M1536.69,110.828l-37.416,0c0.111,3.389 0.972,6.403 2.583,9.042c1.611,2.639 3.792,4.681 6.542,6.125c2.75,1.445 5.847,2.167 9.291,2.167c2.834,-0 5.459,-0.514 7.875,-1.542c2.417,-1.028 4.431,-2.542 6.042,-4.542l2.417,2.75c-1.889,2.278 -4.264,4.028 -7.125,5.25c-2.861,1.223 -5.959,1.834 -9.292,1.834c-4.333,-0 -8.194,-0.945 -11.583,-2.834c-3.389,-1.888 -6.042,-4.5 -7.959,-7.833c-1.916,-3.333 -2.875,-7.139 -2.875,-11.417c0,-4.222 0.903,-8.013 2.709,-11.375c1.805,-3.361 4.291,-5.986 7.458,-7.875c3.167,-1.888 6.722,-2.833 10.667,-2.833c3.944,0 7.486,0.931 10.625,2.792c3.139,1.861 5.611,4.458 7.416,7.791c1.806,3.334 2.709,7.112 2.709,11.334l-0.084,1.166Zm-20.666,-19.416c-3.056,-0 -5.806,0.68 -8.25,2.041c-2.445,1.362 -4.403,3.278 -5.875,5.75c-1.473,2.473 -2.32,5.264 -2.542,8.375l33.333,0c-0.166,-3.111 -1,-5.888 -2.5,-8.333c-1.5,-2.444 -3.472,-4.361 -5.916,-5.75c-2.445,-1.389 -5.195,-2.083 -8.25,-2.083Zm6.833,-20.25l6,-0l-13.083,9.833l-4.5,0l11.583,-9.833Z" style="fill:#3f3f3f;fill-rule:nonzero;"/><path d="M1570.94,87.745c5.445,0 9.75,1.583 12.917,4.75c3.167,3.167 4.75,7.722 4.75,13.667l0,25.416l-4.167,0l0,-25.083c0,-4.889 -1.236,-8.611 -3.708,-11.167c-2.472,-2.555 -5.931,-3.833 -10.375,-3.833c-5.111,0 -9.139,1.528 -12.083,4.583c-2.945,3.056 -4.417,7.167 -4.417,12.334l0,23.166l-4.167,0l0,-43.5l4,0l0,9.417c1.5,-3.055 3.736,-5.444 6.709,-7.167c2.972,-1.722 6.486,-2.583 10.541,-2.583Z" style="fill:#3f3f3f;fill-rule:nonzero;"/></g></g><defs><linearGradient id="_Linear1" x1="0" y1="0" x2="1" y2="0" gradientUnits="userSpaceOnUse" gradientTransform="matrix(127.478,0.31587,-0.31587,127.478,25.9665,86.6677)"><stop offset="0" style="stop-color:#ff4773;stop-opacity:1"/><stop offset="0.28" style="stop-color:#744ca0;stop-opacity:1"/><stop offset="0.74" style="stop-color:#524dab;stop-opacity:1"/><stop offset="1" style="stop-color:#194fbe;stop-opacity:1"/></linearGradient><linearGradient id="_Linear2" x1="0" y1="0" x2="1" y2="0" gradientUnits="userSpaceOnUse" gradientTransform="matrix(127.478,0.31587,-0.31587,127.478,25.9665,86.6677)"><stop offset="0" style="stop-color:#ff4773;stop-opacity:1"/><stop offset="0.37" style="stop-color:#744ca0;stop-opacity:1"/><stop offset="0.6" style="stop-color:#524dab;stop-opacity:1"/><stop offset="1" style="stop-color:#194fbe;stop-opacity:1"/></linearGradient></defs></svg>