<?xml version="1.0" encoding="UTF-8" standalone="no"?><!DOCTYPE svg PUBLIC "-//W3C//DTD SVG 1.1//EN" "http://www.w3.org/Graphics/SVG/1.1/DTD/svg11.dtd"><svg width="100%" height="100%" viewBox="0 0 2480 725" version="1.1" xmlns="http://www.w3.org/2000/svg" xmlns:xlink="http://www.w3.org/1999/xlink" xml:space="preserve" xmlns:serif="http://www.serif.com/" style="fill-rule:evenodd;clip-rule:evenodd;stroke-linejoin:round;stroke-miterlimit:2;"><rect id="Mesa-de-trabajo1" serif:id="Mesa de trabajo1" x="0" y="0" width="2476.41" height="724.863" style="fill:none;"/><g id="Capa_1"><g><rect x="82.921" y="69.721" width="2341.68" height="585.421" style="fill:none;"/><g><g><path d="M311.675,216.808l0,-128.791c0,-0 275.879,106.4 334.129,285.683c17.125,52.542 70.396,260.512 -308.371,260.512c0,0 213.825,2.634 212.217,-176.795c-1.463,-162.454 -168.454,-212.217 -237.975,-240.609Z" style="fill:url(#_Linear1);fill-rule:nonzero;"/></g><g><path d="M298.796,219.442l-0,123.671c-154.55,10.245 -144.304,154.55 41.271,293.733c-0,-0 -278.221,-92.788 -247.338,-262.854c30.879,-144.305 206.067,-154.55 206.067,-154.55Z" style="fill:url(#_Linear2);fill-rule:nonzero;"/></g></g></g></g><g id="Capa_2"><g><path d="M968.698,533.904l-63.916,0c-28.807,0 -53.038,-8.852 -72.693,-26.556c-19.655,-17.705 -29.482,-40.66 -29.482,-68.867c-0,-28.508 10.052,-52.364 30.157,-71.568c20.105,-19.205 44.561,-28.808 73.369,-28.808l62.565,0l0,195.799Zm-212.903,-95.423c0,40.21 14.254,73.743 42.761,100.6c28.507,26.856 63.166,40.285 103.976,40.285l109.827,-0l0,-356.039l-43.661,-0l0,74.268l-68.417,0c-27.607,0 -52.813,6.602 -75.619,19.805c-22.805,13.204 -40.51,31.808 -53.113,55.814c-10.503,20.705 -15.754,42.461 -15.754,65.267Z" style="fill:#3f3f3f;fill-rule:nonzero;"/><path d="M1090.23,579.366l-46.362,-0l0,-285.822l46.362,0l-0,285.822Zm-45.012,-332.633c0,-6.002 2.176,-11.178 6.527,-15.529c4.351,-4.351 9.527,-6.527 15.529,-6.527c6.301,0 11.628,2.176 15.979,6.527c4.351,4.351 6.527,9.527 6.527,15.529c-0,6.301 -2.176,11.628 -6.527,15.979c-4.351,4.351 -9.678,6.526 -15.979,6.526c-6.002,0 -11.178,-2.175 -15.529,-6.526c-4.351,-4.351 -6.527,-9.678 -6.527,-15.979Z" style="fill:#3f3f3f;fill-rule:nonzero;"/><path d="M1117.24,298.045l45.012,0l79.67,219.655l80.12,-219.655l44.561,0l-107.577,281.321l-34.209,-0l-107.577,-281.321Z" style="fill:#3f3f3f;fill-rule:nonzero;"/><path d="M1600.21,579.366l0,-241.261l-62.566,0c-28.807,0 -53.263,9.603 -73.368,28.808c-20.105,19.204 -30.157,43.06 -30.157,71.568c-0,28.507 9.902,52.288 29.707,71.342c19.805,19.055 43.961,28.583 72.468,28.583c17.104,-0 32.858,-4.051 47.262,-12.154l-0,45.462c-18.905,6.301 -35.409,9.452 -49.512,9.452c-40.511,0 -75.094,-13.728 -103.751,-41.185c-28.658,-27.457 -42.986,-61.29 -42.986,-101.5c-0,-22.806 5.251,-44.562 15.754,-65.267c12.603,-24.006 30.307,-42.61 53.113,-55.814c22.806,-13.203 48.012,-19.805 75.619,-19.805l112.078,0l0,281.771l-43.661,-0Z" style="fill:#3f3f3f;fill-rule:nonzero;"/><rect x="1676.73" y="223.327" width="46.362" height="356.039" style="fill:#3f3f3f;fill-rule:nonzero;"/><path d="M1797.81,533.904l63.916,0c28.808,0 52.964,-8.852 72.469,-26.556c19.504,-17.705 29.257,-40.66 29.257,-68.867c-0,-28.508 -9.978,-52.364 -29.933,-71.568c-19.955,-19.205 -44.336,-28.808 -73.143,-28.808l-62.566,0l0,195.799Zm212.904,-95.423c-0,40.21 -14.329,73.743 -42.986,100.6c-28.657,26.856 -63.241,40.285 -103.751,40.285l-109.827,-0l-0,-356.039l43.66,-0l0,74.268l68.418,0c27.606,0 52.813,6.602 75.618,19.805c22.806,13.204 40.361,31.808 52.664,55.814c10.802,20.705 16.204,42.461 16.204,65.267Z" style="fill:#3f3f3f;fill-rule:nonzero;"/><path d="M2290.68,416.875c-8.402,-54.313 -42.311,-81.47 -101.726,-81.47c-29.707,-0 -55.289,10.052 -76.744,30.157c-21.455,20.105 -32.033,44.561 -31.733,73.369c0.3,28.207 10.428,52.213 30.383,72.018c19.955,19.805 44.036,29.707 72.243,29.707c24.006,0 46.811,-4.501 68.417,-13.503c25.206,-10.803 41.26,-25.357 48.162,-43.661l30.157,29.257c-12.303,23.106 -31.958,40.81 -58.964,53.113c-24.606,11.703 -51.913,17.555 -81.921,17.555c-42.01,-0 -77.944,-13.879 -107.802,-41.636c-29.857,-27.757 -44.786,-62.04 -44.786,-102.85c0,-40.51 15.004,-74.869 45.011,-103.076c30.008,-28.207 65.867,-42.311 107.577,-42.311c45.011,0.3 80.27,10.503 105.777,30.608c30.307,23.706 45.461,60.465 45.461,110.278c0,6.001 -0.15,12.303 -0.45,18.904l-216.054,0l-0,-36.009l166.542,0l0.45,-0.45Z" style="fill:#3f3f3f;fill-rule:nonzero;"/></g></g><defs><linearGradient id="_Linear1" x1="0" y1="0" x2="1" y2="0" gradientUnits="userSpaceOnUse" gradientTransform="matrix(531.158,1.31613,-1.31613,531.158,108.194,361.115)"><stop offset="0" style="stop-color:#ff4773;stop-opacity:1"/><stop offset="0.28" style="stop-color:#744ca0;stop-opacity:1"/><stop offset="0.74" style="stop-color:#524dab;stop-opacity:1"/><stop offset="1" style="stop-color:#194fbe;stop-opacity:1"/></linearGradient><linearGradient id="_Linear2" x1="0" y1="0" x2="1" y2="0" gradientUnits="userSpaceOnUse" gradientTransform="matrix(531.158,1.31613,-1.31613,531.158,108.194,361.115)"><stop offset="0" style="stop-color:#ff4773;stop-opacity:1"/><stop offset="0.37" style="stop-color:#744ca0;stop-opacity:1"/><stop offset="0.6" style="stop-color:#524dab;stop-opacity:1"/><stop offset="1" style="stop-color:#194fbe;stop-opacity:1"/></linearGradient></defs></svg>